<svg width="128" height="93" viewBox="0 0 128 93" fill="none" xmlns="http://www.w3.org/2000/svg">
<g filter="url(#filter0_f_10_107)">
<path d="M46.8331 88.5L71.3572 62.9515L59.3325 0L128 88.5H46.8331Z" fill="#B9CFE4"/>
</g>
<path d="M76.0056 71.7528V72.1895C76.0056 76.1951 72.7584 79.4423 68.7528 79.4423C64.7472 79.4423 61.5 76.1951 61.5 72.1895V71.7528C61.5 67.7472 64.7472 64.5 68.7528 64.5C72.7584 64.5 76.0056 67.7472 76.0056 71.7528Z" fill="#AAAAAA" stroke="#888888"/>
<path d="M72 65L80.4591 57.1401L69.4227 53.7443L72 65ZM79.0442 38.7059L73.691 56.1039L75.6026 56.6921L80.9558 39.2941L79.0442 38.7059Z" fill="black"/>
<g filter="url(#filter1_f_10_107)">
<path d="M0 0.613159H59.4907L72.1483 63.0801L46.6749 88.5L0 0.613159Z" fill="#084580"/>
<path d="M0 0.613159H59.4907L72.1483 63.0801H0V0.613159Z" fill="#1168BD"/>
</g>
<path d="M108.006 71.7528V72.1895C108.006 76.1951 104.758 79.4423 100.753 79.4423C96.7472 79.4423 93.5 76.1951 93.5 72.1895V71.7528C93.5 67.7472 96.7472 64.5 100.753 64.5C104.758 64.5 108.006 67.7472 108.006 71.7528Z" fill="#AAAAAA" stroke="#888888"/>
<path d="M98 65L99.4208 53.5407L88.7864 58.0399L98 65ZM86.079 39.3896L93.5723 57.1009L95.4142 56.3217L87.921 38.6104L86.079 39.3896Z" fill="black"/>
<path d="M91.0056 33.7528V34.1895C91.0056 38.1951 87.7584 41.4423 83.7528 41.4423C79.7472 41.4423 76.5 38.1951 76.5 34.1895V33.7528C76.5 29.7472 79.7472 26.5 83.7528 26.5C87.7584 26.5 91.0056 29.7472 91.0056 33.7528Z" fill="#AAAAAA" stroke="#888888"/>
<g filter="url(#filter2_i_10_107)">
<path d="M8.08446 42.4399L13.6645 20.5399H17.9245L23.5045 42.4399H20.2345L18.9145 36.8899H12.7045L11.3845 42.4399H8.08446ZM13.3045 34.2199H18.2845L16.7845 27.8899C16.5245 26.7699 16.3045 25.7999 16.1245 24.9799C15.9645 24.1399 15.8545 23.5699 15.7945 23.2699C15.7345 23.5699 15.6245 24.1399 15.4645 24.9799C15.3045 25.7999 15.0845 26.7599 14.8045 27.8599L13.3045 34.2199ZM25.8327 42.4399V20.5399H32.2827C34.3627 20.5399 35.9927 21.0399 37.1727 22.0399C38.3527 23.0399 38.9427 24.4199 38.9427 26.1799C38.9427 27.1799 38.7227 28.0499 38.2827 28.7899C37.8627 29.5099 37.2727 30.0699 36.5127 30.4699C35.7527 30.8699 34.8627 31.0699 33.8427 31.0699V30.7699C34.9427 30.7499 35.9127 30.9599 36.7527 31.3999C37.5927 31.8199 38.2527 32.4499 38.7327 33.2899C39.2127 34.1299 39.4527 35.1299 39.4527 36.2899C39.4527 37.5299 39.1727 38.6199 38.6127 39.5599C38.0727 40.4799 37.2927 41.1899 36.2727 41.6899C35.2727 42.1899 34.0827 42.4399 32.7027 42.4399H25.8327ZM28.9827 39.6499H32.4327C33.5927 39.6499 34.5127 39.3399 35.1927 38.7199C35.8727 38.0999 36.2127 37.2399 36.2127 36.1399C36.2127 35.0199 35.8727 34.1199 35.1927 33.4399C34.5127 32.7599 33.5927 32.4199 32.4327 32.4199H28.9827V39.6499ZM28.9827 29.7199H32.2527C33.3327 29.7199 34.1827 29.4299 34.8027 28.8499C35.4227 28.2699 35.7327 27.4899 35.7327 26.5099C35.7327 25.5299 35.4227 24.7599 34.8027 24.1999C34.1827 23.6199 33.3427 23.3299 32.2827 23.3299H28.9827V29.7199ZM48.891 42.7399C47.531 42.7399 46.341 42.4899 45.321 41.9899C44.321 41.4699 43.541 40.7299 42.981 39.7699C42.441 38.7899 42.171 37.6499 42.171 36.3499V26.6299C42.171 25.3099 42.441 24.1699 42.981 23.2099C43.541 22.2499 44.321 21.5199 45.321 21.0199C46.341 20.4999 47.531 20.2399 48.891 20.2399C50.251 20.2399 51.431 20.4999 52.431 21.0199C53.431 21.5399 54.201 22.2799 54.741 23.2399C55.301 24.1799 55.581 25.3099 55.581 26.6299H52.341C52.341 25.4899 52.041 24.6199 51.441 24.0199C50.841 23.4199 49.991 23.1199 48.891 23.1199C47.791 23.1199 46.931 23.4199 46.311 24.0199C45.711 24.6199 45.411 25.4799 45.411 26.5999V36.3499C45.411 37.4699 45.711 38.3399 46.311 38.9599C46.931 39.5599 47.791 39.8599 48.891 39.8599C49.991 39.8599 50.841 39.5599 51.441 38.9599C52.041 38.3399 52.341 37.4699 52.341 36.3499H55.581C55.581 37.6499 55.301 38.7799 54.741 39.7399C54.201 40.6999 53.431 41.4399 52.431 41.9599C51.431 42.4799 50.251 42.7399 48.891 42.7399Z" fill="white"/>
</g>
<defs>
<filter id="filter0_f_10_107" x="42.8331" y="-4" width="89.1669" height="96.5" filterUnits="userSpaceOnUse" color-interpolation-filters="sRGB">
<feFlood flood-opacity="0" result="BackgroundImageFix"/>
<feBlend mode="normal" in="SourceGraphic" in2="BackgroundImageFix" result="shape"/>
<feGaussianBlur stdDeviation="2" result="effect1_foregroundBlur_10_107"/>
</filter>
<filter id="filter1_f_10_107" x="-4" y="-3.38684" width="80.1483" height="95.8868" filterUnits="userSpaceOnUse" color-interpolation-filters="sRGB">
<feFlood flood-opacity="0" result="BackgroundImageFix"/>
<feBlend mode="normal" in="SourceGraphic" in2="BackgroundImageFix" result="shape"/>
<feGaussianBlur stdDeviation="2" result="effect1_foregroundBlur_10_107"/>
</filter>
<filter id="filter2_i_10_107" x="8.08447" y="20.2399" width="47.4966" height="26.5" filterUnits="userSpaceOnUse" color-interpolation-filters="sRGB">
<feFlood flood-opacity="0" result="BackgroundImageFix"/>
<feBlend mode="normal" in="SourceGraphic" in2="BackgroundImageFix" result="shape"/>
<feColorMatrix in="SourceAlpha" type="matrix" values="0 0 0 0 0 0 0 0 0 0 0 0 0 0 0 0 0 0 127 0" result="hardAlpha"/>
<feOffset dy="4"/>
<feGaussianBlur stdDeviation="2"/>
<feComposite in2="hardAlpha" operator="arithmetic" k2="-1" k3="1"/>
<feColorMatrix type="matrix" values="0 0 0 0 0 0 0 0 0 0 0 0 0 0 0 0 0 0 0.25 0"/>
<feBlend mode="normal" in2="shape" result="effect1_innerShadow_10_107"/>
</filter>
</defs>
</svg>
