<svg xmlns="http://www.w3.org/2000/svg" viewBox="0 0 256 256"><g fill="#000" stroke="none" stroke-miterlimit="10" stroke-width="0"><path d="M75.5 78.7h-61C6.5 78.7 0 72.3 0 64.3V25.7c0-8 6.5-14.4 14.5-14.4h61c8 0 14.5 6.4 14.5 14.4v38.6c0 8-6.5 14.4-14.5 14.4zm-61-63.2C8.8 15.5 4.2 20 4.2 25.7v38.6c0 5.6 4.6 10.2 10.3 10.2h61c5.7 0 10.3-4.6 10.3-10.2V25.7c0-5.6-4.6-10.2-10.3-10.2h-61z" transform="matrix(2.81 0 0 2.81 1.4 1.4)"/><path d="m11 26 32.5 31.5c2 2 5-1.1 3-3L14.1 22.7c-2-2-5 1.2-3 3.1z" transform="matrix(2.81 0 0 2.81 1.4 1.4)"/><path d="M46.5 57.5 79 25.9c2-2-1.1-5-3.1-3L43.5 54.3c-2 2 1 5 3 3.1z" transform="matrix(2.81 0 0 2.81 1.4 1.4)"/><path d="M78.8 65 57.3 44.5c-2-2-5.2 1.1-3.1 3L75.7 68c2 2 5.2-1.1 3.1-3zM14.4 68 36 47.6c2-2-1-5-3-3.1-7.3 6.8-14.5 13.6-21.6 20.5-2 1.9 1 5 3 3z" transform="matrix(2.81 0 0 2.81 1.4 1.4)"/></g></svg>