<svg xmlns="http://www.w3.org/2000/svg" preserveAspectRatio="xMaxYMax" viewBox="0 0 375 179"><rect width="125" height="52.6" x="7" y="11.8" fill="#438DD5" stroke="#3c7fc0" stroke-width=".5" rx="2.5" ry="2.5"/><text x="17" y="36.7" fill="#FFF" font-family="sans-serif" font-size="16" font-weight="bold" textLength="40">Web</text><text x="57" y="36.7" fill="#FFF" font-family="sans-serif" font-size="16" font-weight="bold" textLength="6"> </text><text x="63" y="36.7" fill="#FFF" font-family="sans-serif" font-size="16" font-weight="bold" textLength="59">Server</text><text x="56.5" y="51.6" fill="#FFF" font-family="sans-serif" font-size="12" font-style="italic" textLength="26">[Go]    </text><path fill="#B3B3B3" stroke="#a6a6a6" stroke-width=".5" d="M251 17.3c0-10 53.5-10 53.5-10s53.5 0 53.5 10V59c0 10-53.5 10-53.5 10S251 69 251 59V17.3"/><path fill="none" stroke="#a6a6a6" stroke-width=".5" d="M251 17.3c0 10 53.5 10 53.5 10s53.5 0 53.5-10"/><text x="261" y="46.2" fill="#FFF" font-family="sans-serif" font-size="16" font-weight="bold" textLength="87">Database    </text><text x="274" y="61.1" fill="#FFF" font-family="sans-serif" font-size="12" font-style="italic" textLength="61">[Postgres]    </text><path fill="none" stroke="#666" stroke-width="1" d="M132.2 38.3h110.5"/><path fill="#666" stroke="#666" d="M250.8 38.3 242.8 35.3 242.8 41.3 250.8 38.3z"/><text x="150.5" y="18.5" fill="#666" font-family="sans-serif" font-size="12" font-weight="bold" textLength="44">Reads    </text><text x="194.5" y="18.5" fill="#666" font-family="sans-serif" font-size="12" font-weight="bold" textLength="4">     </text><text x="198.5" y="18.5" fill="#666" font-family="sans-serif" font-size="12" font-weight="bold" textLength="34">data    </text><text x="175.5" y="32.4" fill="#666" font-family="sans-serif" font-size="12" font-style="italic" textLength="32">[TCP]    </text><path fill="none" d="M180 103.9H344V120.2H180z"/><text x="180" y="116.9" font-family="sans-serif" font-size="14" font-weight="bold" textLength="57">Legend</text><text x="237" y="116.9" fill="#FFF" font-family="sans-serif" font-size="14" textLength="4"> </text><path fill="#438DD5" d="M180 120.2H344V136.5H180z"/><text x="184" y="133.2" fill="#3C7FC0" font-family="sans-serif" font-size="14" textLength="8">▯</text><text x="192" y="133.2" fill="#FFF" font-family="sans-serif" font-size="14" textLength="4"> </text><text x="200" y="133.2" fill="#FFF" font-family="sans-serif" font-size="14" textLength="69">container</text><text x="273" y="133.2" fill="#FFF" font-family="sans-serif" font-size="14" textLength="4"> </text><path fill="#B3B3B3" d="M180 136.5H344V152.8H180z"/><text x="184" y="149.5" fill="#A6A6A6" font-family="sans-serif" font-size="14" textLength="8">▯</text><text x="192" y="149.5" fill="#FFF" font-family="sans-serif" font-size="14" textLength="4"> </text><text x="200" y="149.5" fill="#FFF" font-family="sans-serif" font-size="14" textLength="136">external_container</text><text x="340" y="149.5" fill="#FFF" font-family="sans-serif" font-size="14" textLength="4"> </text><path d="M180 103.9 344 103.9"/><path d="M180 120.2 344 120.2"/><path d="M180 136.5 344 136.5"/><path d="M180 152.8 344 152.8"/><path d="M180 103.9 180 152.8"/><path d="M344 103.9 344 152.8"/></svg>