<svg xmlns="http://www.w3.org/2000/svg" fill="#fff" fill-rule="evenodd" stroke="#000" stroke-linecap="round" stroke-linejoin="round" width="30" height="30" viewBox="0 0 70 70"><path fill="#fff" stroke="#fff" stroke-width=".8" d="M17.8 40.3c0-3.7 2.8-6.7 6.3-6.7s6.3 3 6.3 6.7V57c0 3.7-2.8 6.7-6.3 6.7s-6.3-3-6.3-6.7zM40.3 46.2c-3.7 0-6.7-2.8-6.7-6.3s3-6.3 6.7-6.3H57c3.7 0 6.7 2.8 6.7 6.3s-3 6.3-6.7 6.3zM33.6 7.1c0-3.7 2.8-6.7 6.3-6.7s6.3 3 6.3 6.7v16.6c0 3.7-2.8 6.7-6.3 6.7s-6.3-3-6.3-6.7zM7.1 30.4c-3.7 0-6.7-2.8-6.7-6.3s3-6.3 6.7-6.3h16.6c3.7 0 6.7 2.8 6.7 6.3s-3 6.3-6.7 6.3z"/><g fill="#fff" stroke="#fff" stroke-linejoin="miter"><path d="M43 73a8 8 0 0 0 8 8 8 8 0 0 0 8-8 8 8 0 0 0-8-8h-8zM73 39h-8v-8a8 8 0 1 1 16 0 8 8 0 0 1-8 8zM9 43h8v8a8 8 0 0 1-8 8 8 8 0 0 1-8-8 8 8 0 0 1 8-8zM39 9v8h-8a8 8 0 0 1-8-8 8 8 0 0 1 8-8 8 8 0 0 1 8 8z" transform="matrix(.79012 0 0 .79012 -.4 -.4)"/></g></svg>